#!OML:ASF H:\Martial Arts Walks\Project 1\Capture day 1\Session 1\male.ASF
:FULLY-SPECIFIED
:DEGREES
1008
root 0.544941 13.3739 33.712 6.58171 -29.8586 -12.1805
lowerback 14.3926 1.59623 2.76978
upperback -0.967013 2.88341 3.2173
thorax -9.18077 1.33201 1.25964
lowerneck -4.85782 6.8478 0.54508
upperneck 6.55332 8.96967 2.07759
head 2.85518 4.54006 0.924186
rclavicle -9.34288e-015 1.19271e-015
rhumerus -79.5204 18.9675 -98.1843
rradius 113.85
rwrist -64.4657
rhand -7.83287 -20.6999
rfingers 7.12502
rthumb 18.0696 -49.8806
lclavicle -9.34288e-015 1.19271e-015
lhumerus 56.0523 19.6912 84.9645
lradius 15.6463
lwrist -63.5796
lhand -29.3914 41.1968
lfingers 7.12502
lthumb -2.72972 71.1591
rfemur -1.31333 -5.00957 11.7254
rtibia 57.1142
rfoot -31.2714 -33.2343
rtoes -8.08282
lfemur -59.5589 22.5518 -0.359291
ltibia 59.5085
lfoot 7.15826 -4.14998
ltoes -3.17724
1009
root 0.580617 13.3637 33.8385 7.03807 -30.0085 -12.414
lowerback 14.1926 1.59378 2.95691
upperback -1.00412 2.90932 3.28244
thorax -9.10171 1.338 1.22348
lowerneck -4.85981 6.84747 0.576608
upperneck 6.55575 8.96695 2.07124
head 2.85826 4.53918 0.917128
rclavicle -3.35449e-014 9.54166e-015
rhumerus -78.7201 18.9956 -97.7477
rradius 113.36
rwrist -64.078
rhand -7.08673 -21.143
rfingers 7.12502
rthumb 18.7874 -50.2558
lclavicle -3.35449e-014 9.54166e-015
lhumerus 55.9545 19.8447 84.8491
lradius 15.8589
lwrist -65.4298
lhand -28.8127 41.9261
lfingers 7.12502
lthumb -2.17083 71.8948
rfemur -0.940851 -5.08059 11.3774
rtibia 56.1775
rfoot -30.621 -33.0053
rtoes -8.88337
lfemur -60.3334 23.3525 -0.774398
ltibia 60.7476
lfoot 6.22079 -4.45376
ltoes -2.71029
1010
root 0.613081 13.3547 33.9591 7.46757 -30.1386 -12.6382
lowerback 14.0128 1.60424 3.11191
upperback -1.03469 2.94659 3.34459
thorax -9.02839 1.35097 1.19941
lowerneck -4.90185 6.83912 0.600578
upperneck 6.57778 8.9503 2.10853
head 2.87315 4.53289 0.926993
rclavicle -3.62037e-014 -1.19271e-015
rhumerus -78.0597 19.0803 -97.4356
rradius 112.817
rwrist -63.7448
rhand -6.19302 -21.3298
rfingers 7.12502
rthumb 19.6468 -50.357
lclavicle -3.62037e-014 -1.19271e-015
lhumerus 56.0525 20.0873 85.1053
lradius 15.9399
lwrist -67.0526
lhand -28.415 42.7315
lfingers 7.12502
lthumb -1.78671 72.7037
rfemur -0.51818 -5.14336 11.0305
rtibia 55.169
rfoot -29.9423 -32.7476
rtoes -9.88296
lfemur -61.057 24.1625 -1.19315
ltibia 61.881
lfoot 5.33869 -4.81053
ltoes -2.26069
1011
root 0.642082 13.3472 34.0739 7.85785 -30.233 -12.8496
lowerback 13.8484 1.62569 3.24564
upperback -1.06124 2.99461 3.40275
thorax -8.96017 1.37005 1.18053
lowerneck -4.93882 6.81236 0.622889
upperneck 6.60384 8.90762 2.16607
head 2.88765 4.51436 0.942419
rclavicle -1.71203e-014 -2.34566e-014
rhumerus -77.5686 19.2093 -97.2484
rradius 112.315
rwrist -63.7752
rhand -5.31165 -21.4391
rfingers 7.12502
rthumb 20.494 -50.3774
lclavicle -1.71203e-014 -2.34566e-014
lhumerus 56.2265 20.2606 85.4792
lradius 15.931
lwrist -67.841
lhand -28.348 43.4577
lfingers 7.12502
lthumb -1.72204 73.4305
rfemur -0.0353266 -5.23307 10.6898
rtibia 54.1097
rfoot -29.2919 -32.4574
rtoes -10.9396
lfemur -61.7213 24.9547 -1.61078
ltibia 62.9059
lfoot 4.50768 -5.21809
ltoes -1.81785
1012
root 0.667647 13.3412 34.1815 8.21679 -30.2779 -13.0543
lowerback 13.7132 1.64912 3.34879
upperback -1.09163 3.04222 3.46731
thorax -8.91475 1.39031 1.18525
lowerneck -4.9518 6.77736 0.639919
upperneck 6.62394 8.85424 2.22941
head 2.89521 4.49054 0.958834
rclavicle -6.53505e-014 8.34896e-015
rhumerus -77.2538 19.4002 -97.1947
rradius 111.882
rwrist -64.0706
rhand -4.51383 -21.5876
rfingers 7.12502
rthumb 21.2605 -50.4416
lclavicle -6.53505e-014 8.34896e-015
lhumerus 56.3875 20.2997 85.7809
lradius 15.8781
lwrist -67.6012
lhand -28.5955 43.9716
lfingers 7.12502
lthumb -1.96102 73.9424
rfemur 0.492639 -5.37062 10.3738
rtibia 53.0201
rfoot -28.7076 -32.1322
rtoes -11.9319
lfemur -62.3384 25.7023 -2.01466
ltibia 63.8213
lfoot 3.735 -5.66009
ltoes -1.28398
1013
root 0.689663 13.3365 34.2822 8.56757 -30.2715 -13.2521
lowerback 13.5806 1.66845 3.42215
upperback -1.13457 3.08093 3.54155
thorax -8.88652 1.40779 1.219
lowerneck -4.91382 6.74454 0.637498
upperneck 6.62067 8.80605 2.29565
head 2.88415 4.46872 0.976448
rclavicle 1.67973e-014 -3.37934e-014
rhumerus -77.1153 19.6544 -97.2958
rradius 111.505
rwrist -64.3188
rhand -3.81139 -21.7149
rfingers 7.12502
rthumb 21.9351 -50.4914
lclavicle 1.67973e-014 -3.37934e-014
lhumerus 56.4889 20.2064 85.9283
lradius 15.814
lwrist -66.5337
lhand -29.0419 44.1453
lfingers 7.12502
lthumb -2.39222 74.1116
rfemur 1.03348 -5.55677 10.0913
rtibia 51.9218
rfoot -28.2056 -31.7783
rtoes -12.8115
lfemur -62.9334 26.3906 -2.40541
ltibia 64.6347
lfoot 3.02206 -6.11118
ltoes -0.637757
1014
root 0.708325 13.3322 34.3766 8.95429 -30.2024 -13.4785
lowerback 13.4159 1.67452 3.50485
upperback -1.18498 3.10304 3.63142
thorax -8.84855 1.4174 1.26863
lowerneck -4.86522 6.70903 0.668877
upperneck 6.60308 8.75666 2.29654
head 2.87101 4.44472 0.966957
rclavicle 2.55935e-015 -3.26007e-014
rhumerus -77.098 19.957 -97.523
rradius 111.164
rwrist -64.2934
rhand -3.23731 -21.7886
rfingers 7.12502
rthumb 22.4862 -50.4995
lclavicle 2.55935e-015 -3.26007e-014
lhumerus 56.5397 20.0182 85.915
lradius 15.768
lwrist -65.0774
lhand -29.4914 43.9127
lfingers 7.12502
lthumb -2.82628 73.8737
rfemur 1.55637 -5.78044 9.8891
rtibia 50.8283
rfoot -27.7658 -31.4256
rtoes -13.6057
lfemur -63.5497 27.009 -2.75719
ltibia 65.3627
lfoot 2.36848 -6.55336
ltoes 0.0822082
1015
root 0.723944 13.3279 34.4649 9.36705 -30.0856 -13.7201
lowerback 13.2289 1.67739 3.60133
upperback -1.25474 3.12337 3.73125
thorax -8.81871 1.42562 1.32219
lowerneck -4.77798 6.6779 0.696303
upperneck 6.57367 8.71614 2.27001
head 2.84763 4.42391 0.947702
rclavicle 3.44146e-014 6.52014e-014
rhumerus -77.191 20.242 -97.8105
rradius 110.871
rwrist -63.9978
rhand -2.75904 -21.822
rfingers 7.12502
rthumb 22.9452 -50.4766
lclavicle 3.44146e-014 6.52014e-014
lhumerus 56.5498 19.7956 85.8527
lradius 15.7381
lwrist -63.8306
lhand -29.7702 43.3867
lfingers 7.12502
lthumb -3.09553 73.344
rfemur 2.05094 -6.01488 9.757
rtibia 49.755
rfoot -27.3704 -31.0856
rtoes -14.3298
lfemur -64.183 27.5541 -3.07658
ltibia 66.0205
lfoot 1.7732 -6.96087
ltoes 0.86756
1016
root 0.736863 13.3234 34.5482 9.79309 -29.9285 -13.9675
lowerback 13.0202 1.68043 3.72141
upperback -1.33807 3.14664 3.83066
thorax -8.78998 1.43406 1.36204
lowerneck -4.64851 6.63439 0.695318
upperneck 6.53326 8.66258 2.23465
head 2.81181 4.39548 0.927638
rclavicle -6.05796e-014 1.66979e-014
rhumerus -77.3381 20.45 -98.0744
rradius 110.631
rwrist -63.6101
rhand -2.3992 -21.7393
rfingers 7.12502
rthumb 23.2905 -50.3506
lclavicle -6.05796e-014 1.66979e-014
lhumerus 56.5692 19.6058 85.8659
lradius 15.7121
lwrist -63.2676
lhand -29.7874 42.7521
lfingers 7.12502
lthumb -3.11216 72.7091
rfemur 2.5265 -6.23618 9.68523
rtibia 48.7037
rfoot -26.9971 -30.7752
rtoes -15.0604
lfemur -64.8225 28.0234 -3.36803
ltibia 66.6255
lfoot 1.22722 -7.32969
ltoes 1.64408
1017
root 0.748068 13.3182 34.626 10.2041 -29.7444 -14.2049
lowerback 12.824 1.67531 3.8497
upperback -1.41856 3.15945 3.91942
thorax -8.76405 1.43667 1.38773
lowerneck -4.54645 6.59929 0.706987
upperneck 6.50697 8.61967 2.18661
head 2.78703 4.37235 0.903681
rclavicle -1.80149e-014 -7.95139e-015
rhumerus -77.4678 20.5764 -98.2556
rradius 110.466
rwrist -63.3441
rhand -2.18292 -21.5999
rfingers 7.12502
rthumb 23.4979 -50.1847
lclavicle -1.80149e-014 -7.95139e-015
lhumerus 56.6506 19.5236 86.0149
lradius 15.6765
lwrist -63.5842
lhand -29.5608 42.1996
lfingers 7.12502
lthumb -2.89335 72.1597
rfemur 2.99054 -6.41786 9.65914
rtibia 47.6816
rfoot -26.6441 -30.4915
rtoes -15.7983
lfemur -65.4492 28.4118 -3.63763
ltibia 67.1868
lfoot 0.735334 -7.65033
ltoes 2.28537
1018
root 0.757863 13.313 34.6987 10.5733 -29.5519 -14.4286
lowerback 12.6665 1.66074 3.98028
upperback -1.4872 3.16011 3.99391
thorax -8.7464 1.43271 1.39831
lowerneck -4.46747 6.57474 0.71446
upperneck 6.48893 8.58962 2.15484
head 2.76829 4.35618 0.887331
rclavicle 6.4605e-016 7.95139e-015
rhumerus -77.5487 20.6263 -98.3106
rradius 110.395
rwrist -63.3165
rhand -2.08628 -21.5926
rfingers 7.12502
rthumb 23.5906 -50.1656
lclavicle 6.4605e-016 7.95139e-015
lhumerus 56.8165 19.5856 86.3474
lradius 15.6238
lwrist -64.7289
lhand -29.1624 41.8276
lfingers 7.12502
lthumb -2.50853 71.7926
rfemur 3.46642 -6.55777 9.65881
rtibia 46.6838
rfoot -26.2906 -30.236
rtoes -16.5674
lfemur -66.0271 28.7333 -3.8792
ltibia 67.7121
lfoot 0.292446 -7.93088
ltoes 2.77489
1019
root 0.766343 13.3081 34.767 10.8966 -29.3793 -14.6283
lowerback 12.5438 1.6403 4.09261
upperback -1.53944 3.14949 4.04953
thorax -8.73051 1.42365 1.40025
lowerneck -4.42145 6.56219 0.725218
upperneck 6.48631 8.57324 2.14525
head 2.75992 4.34778 0.879869
rclavicle 4.14466e-014 -1.19271e-014
rhumerus -77.5716 20.6195 -98.2531
rradius 110.399
rwrist -63.4924
rhand -2.0596 -21.6864
rfingers 7.12502
rthumb 23.6162 -50.256
lclavicle 4.14466e-014 -1.19271e-014
lhumerus 57.0617 19.7767 86.819
lradius 15.556
lwrist -66.3761
lhand -28.6803 41.6113
lfingers 7.12502
lthumb -2.04296 71.5813
rfemur 3.94814 -6.62004 9.67567
rtibia 45.7101
rfoot -25.9372 -30.0221
rtoes -17.348
lfemur -66.5436 29.0134 -4.10247
ltibia 68.2054
lfoot -0.108972 -8.17174
ltoes 3.14078
1020
root 0.773822 13.3042 34.8308 11.1932 -29.2239 -14.8156
lowerback 12.442 1.60612 4.19367
upperback -1.57178 3.11718 4.08747
thorax -8.70445 1.40438 1.39324
lowerneck -4.42132 6.55932 0.73786
upperneck 6.49389 8.56692 2.16456
head 2.7622 4.34556 0.883884
rclavicle 4.47266e-014 -1.19271e-015
rhumerus -77.5339 20.6069 -98.1223
rradius 110.445
rwrist -63.7728
rhand -2.02616 -21.8363
rfingers 7.12502
rthumb 23.6483 -50.4019
lclavicle 4.47266e-014 -1.19271e-015
lhumerus 57.3884 20.0768 87.3854
lradius 15.4782
lwrist -68.1145
lhand -28.2486 41.482
lfingers 7.12502
lthumb -1.62599 71.4555
rfemur 4.4234 -6.62762 9.71628
rtibia 44.752
rfoot -25.5666 -29.8532
rtoes -18.1192
lfemur -67.0156 29.2581 -4.30544
ltibia 68.6668
lfoot -0.473771 -8.37282
ltoes 3.43768
1021
root 0.780305 13.3018 34.8909 11.4574 -29.1014 -14.9737
lowerback 12.3622 1.57234 4.26482
upperback -1.59551 3.08018 4.1062
thorax -8.68205 1.38378 1.38267
lowerneck -4.43517 6.56748 0.733631
upperneck 6.50142 8.57296 2.23345
head 2.76388 4.3508 0.907294
rclavicle 1.18774e-014 2.26615e-014
rhumerus -77.4788 20.5927 -97.969
rradius 110.487
rwrist -64.0123
rhand -2.01419 -21.9715
rfingers 7.12502
rthumb 23.6598 -50.5355
lclavicle 1.18774e-014 2.26615e-014
lhumerus 57.7349 20.3901 87.9408
lradius 15.3905
lwrist -69.5054
lhand -27.9634 41.3996
lfingers 7.12502
lthumb -1.35054 71.375
rfemur 4.89348 -6.58357 9.75217
rtibia 43.8081
rfoot -25.1974 -29.7118
rtoes -18.842
lfemur -67.43 29.4779 -4.50046
ltibia 69.0969
lfoot -0.814252 -8.53021
ltoes 3.72184
1022
root 0.785836 13.3004 34.9484 11.7102 -28.9908 -15.1204
lowerback 12.2753 1.5408 4.34096
upperback -1.61799 3.04493 4.10939
thorax -8.65299 1.3635 1.35239
lowerneck -4.41974 6.56407 0.738943
upperneck 6.48217 8.5636 2.30236
head 2.75163 4.34843 0.926479
rclavicle -5.42185e-014 2.78299e-015
rhumerus -77.4375 20.5764 -97.8269
rradius 110.503
rwrist -64.1617
rhand -1.85294 -21.9249
rfingers 7.12502
rthumb 23.8144 -50.4688
lclavicle -5.42185e-014 2.78299e-015
lhumerus 58.0483 20.6324 88.3998
lradius 15.299
lwrist -70.2664
lhand -27.9124 41.314
lfingers 7.12502
lthumb -1.30129 71.2898
rfemur 5.35821 -6.5234 9.79593
rtibia 42.8767
rfoot -24.8279 -29.5966
rtoes -19.5323
lfemur -67.808 29.666 -4.67617
ltibia 69.4998
lfoot -1.14325 -8.65022
ltoes 3.95016
